<svg width="22" height="16" viewBox="0 0 22 16" fill="none" xmlns="http://www.w3.org/2000/svg">
<path fill-rule="evenodd" clip-rule="evenodd" d="M5.30099 11.577C3.77799 10.268 2.69099 8.773 2.17999 8C2.68999 7.227 3.77799 5.732 5.30099 4.423C6.87399 3.072 8.81599 2 11 2C13.184 2 15.126 3.072 16.699 4.423C18.222 5.732 19.309 7.227 19.82 8C19.31 8.773 18.222 10.268 16.699 11.577C15.126 12.928 13.184 14 11 14C8.81599 14 6.87399 12.928 5.30099 11.577ZM11 0C8.14799 0 5.75699 1.395 3.99799 2.906C2.23299 4.423 1.00799 6.138 0.463992 6.97C0.263025 7.27593 0.155945 7.63397 0.155945 8C0.155945 8.36603 0.263025 8.72407 0.463992 9.03C1.00799 9.862 2.23299 11.577 3.99799 13.094C5.75799 14.605 8.14799 16 11 16C13.852 16 16.243 14.605 18.002 13.094C19.767 11.577 20.992 9.862 21.536 9.03C21.947 8.402 21.947 7.599 21.536 6.97C20.992 6.138 19.767 4.423 18.002 2.906C16.242 1.395 13.852 0 11 0ZM8.99999 8C8.99999 7.46957 9.21071 6.96086 9.58578 6.58579C9.96085 6.21071 10.4696 6 11 6C11.5304 6 12.0391 6.21071 12.4142 6.58579C12.7893 6.96086 13 7.46957 13 8C13 8.53043 12.7893 9.03914 12.4142 9.41421C12.0391 9.78929 11.5304 10 11 10C10.4696 10 9.96085 9.78929 9.58578 9.41421C9.21071 9.03914 8.99999 8.53043 8.99999 8ZM11 4C9.93913 4 8.92171 4.42143 8.17157 5.17157C7.42142 5.92172 6.99999 6.93913 6.99999 8C6.99999 9.06087 7.42142 10.0783 8.17157 10.8284C8.92171 11.5786 9.93913 12 11 12C12.0609 12 13.0783 11.5786 13.8284 10.8284C14.5786 10.0783 15 9.06087 15 8C15 6.93913 14.5786 5.92172 13.8284 5.17157C13.0783 4.42143 12.0609 4 11 4Z" fill="black"/>
</svg>
