<svg width="21" height="19" viewBox="0 0 21 19" fill="none" xmlns="http://www.w3.org/2000/svg">
<path d="M10.5 18C9.85502 17.428 9.12602 16.833 8.35502 16.2H8.34502C5.63002 13.98 2.55302 11.468 1.19402 8.45803C0.74754 7.49975 0.510927 6.45715 0.500011 5.40003C0.49703 3.94951 1.07879 2.55901 2.11383 1.54279C3.14887 0.526575 4.54981 -0.0295798 6.00002 2.56451e-05C7.18065 0.00189045 8.33586 0.343107 9.32802 0.983026C9.76399 1.26599 10.1584 1.60828 10.5 2.00003C10.8435 1.60982 11.2381 1.26773 11.673 0.983026C12.6648 0.34298 13.8197 0.0017442 15 2.56451e-05C16.4502 -0.0295798 17.8512 0.526575 18.8862 1.54279C19.9213 2.55901 20.503 3.94951 20.5 5.40003C20.4898 6.45884 20.2532 7.50322 19.806 8.46303C18.447 11.473 15.371 13.984 12.656 16.2L12.646 16.208C11.874 16.837 11.146 17.432 10.501 18.008L10.5 18ZM6.00002 2.00003C5.06853 1.98837 4.17009 2.34487 3.50002 2.99203C2.85441 3.62619 2.49358 4.49507 2.49994 5.40003C2.51135 6.17053 2.68585 6.92988 3.01202 7.62803C3.65353 8.92673 4.51913 10.1021 5.56902 11.1C6.56002 12.1 7.70002 13.068 8.68602 13.882C8.95902 14.107 9.23702 14.334 9.51502 14.561L9.69002 14.704C9.95702 14.922 10.233 15.148 10.5 15.37L10.513 15.358L10.519 15.353H10.525L10.534 15.346H10.539H10.544L10.562 15.331L10.603 15.298L10.61 15.292L10.621 15.284H10.627L10.636 15.276L11.3 14.731L11.474 14.588C11.755 14.359 12.033 14.132 12.306 13.907C13.292 13.093 14.433 12.126 15.424 11.121C16.4741 10.1236 17.3397 8.94854 17.981 7.65003C18.3131 6.94583 18.4901 6.17853 18.5001 5.40003C18.5042 4.49786 18.1435 3.63232 17.5 3.00003C16.8312 2.34995 15.9326 1.99051 15 2.00003C13.8619 1.99035 12.774 2.46739 12.01 3.31103L10.5 5.05103L8.99002 3.31103C8.22609 2.46739 7.1381 1.99035 6.00002 2.00003Z" fill="#C14856"/>
</svg>
