<svg width="397" height="122" viewBox="0 0 397 122" fill="none" xmlns="http://www.w3.org/2000/svg">
<g filter="url(#filter0_d_28_369)">
<path d="M10.9853 22.824C8.42525 22.824 6.44125 22.12 5.03325 20.712C3.68925 19.24 3.01725 17.48 3.01725 15.432C3.01725 14.92 3.08125 14.312 3.20925 13.608C3.40125 12.904 3.62525 12.296 3.88125 11.784C4.71325 12.168 5.92925 12.456 7.52925 12.648C9.19325 12.776 11.1133 12.84 13.2893 12.84C16.5533 12.84 20.2333 12.712 24.3293 12.456C28.4893 12.136 32.4573 11.816 36.2333 11.496C40.0093 11.176 43.3373 10.888 46.2173 10.632C49.0973 10.312 50.9533 10.152 51.7853 10.152C54.1533 10.152 55.8493 11.048 56.8733 12.84C57.9613 14.568 58.7613 16.904 59.2733 19.848C57.6093 19.72 55.9453 19.624 54.2813 19.56C52.6813 19.432 51.3053 19.368 50.1533 19.368C48.1053 19.368 46.0253 19.432 43.9133 19.56C41.8653 19.688 39.7853 19.88 37.6733 20.136C36.7773 21.992 35.7853 24.2 34.6973 26.76C33.6093 29.256 32.5213 31.88 31.4333 34.632C30.4093 37.384 29.4173 40.136 28.4573 42.888C27.4973 45.576 26.6653 48.008 25.9613 50.184C24.5533 54.408 23.3053 58.312 22.2173 61.896C21.1933 65.48 20.2653 68.84 19.4333 71.976C18.6653 75.048 17.9933 77.992 17.4173 80.808C16.8413 83.624 16.3293 86.376 15.8813 89.064C11.5933 88.424 8.00925 85.736 5.12925 81C5.64125 79.016 6.24925 76.872 6.95325 74.568C7.72125 72.2 8.58525 69.544 9.54525 66.6C10.5693 63.592 11.7533 60.2 13.0973 56.424C14.4413 52.648 15.9773 48.36 17.7053 43.56C18.3453 41.768 19.0173 39.912 19.7213 37.992C20.4253 36.008 21.0973 34.056 21.7373 32.136C22.4413 30.216 23.0493 28.36 23.5613 26.568C24.1373 24.776 24.6173 23.144 25.0013 21.672C22.3133 21.992 19.7533 22.28 17.3213 22.536C14.9533 22.728 12.8413 22.824 10.9853 22.824ZM36.3518 79.08C36.6718 77.224 37.2158 74.792 37.9838 71.784C38.8158 68.712 39.7758 65.48 40.8638 62.088C41.9518 58.632 43.1038 55.176 44.3198 51.72C45.5358 48.264 46.7198 45.16 47.8718 42.408C48.7038 40.424 49.4398 38.888 50.0798 37.8C50.7198 36.648 51.4238 35.688 52.1918 34.92C53.0878 35.048 54.0158 35.272 54.9758 35.592C55.9358 35.912 56.8638 36.296 57.7598 36.744C58.6558 37.192 59.4558 37.672 60.1598 38.184C60.8638 38.632 61.4078 39.08 61.7918 39.528C60.0638 41.576 58.5278 43.912 57.1838 46.536C55.9038 49.16 54.5918 52.52 53.2478 56.616C56.7038 53.544 59.7438 50.6 62.3678 47.784C65.0558 44.968 67.5518 41.832 69.8558 38.376C70.2398 38.056 70.9118 37.896 71.8718 37.896C72.7678 37.896 73.6318 38.056 74.4638 38.376C75.2958 38.632 75.8718 39.016 76.1918 39.528C75.0398 42.6 74.4638 45.64 74.4638 48.648C74.4638 51.464 74.8798 53.576 75.7118 54.984C75.6478 55.368 75.1998 56.104 74.3678 57.192C73.5998 58.28 72.7358 59.304 71.7758 60.264C70.0478 59.368 68.5118 58.152 67.1678 56.616C65.8238 55.016 64.8318 53.288 64.1918 51.432C61.1838 53.544 58.6238 55.624 56.5118 57.672C54.3998 59.656 52.5758 61.896 51.0398 64.392C49.5678 66.824 48.2878 69.64 47.1998 72.84C46.1758 76.04 45.1838 79.848 44.2238 84.264C43.6478 84.2 42.9438 83.976 42.1118 83.592C41.3438 83.272 40.5438 82.856 39.7118 82.344C38.9438 81.832 38.2398 81.288 37.5998 80.712C36.9598 80.136 36.5438 79.592 36.3518 79.08ZM111.743 41.256C111.487 45.224 110.783 48.648 109.631 51.528C108.479 54.344 106.815 56.84 104.639 59.016C102.527 61.128 99.9345 63.048 96.8625 64.776C93.7905 66.504 90.2065 68.168 86.1105 69.768C86.1105 70.152 86.0785 70.568 86.0145 71.016C86.0145 71.4 86.0145 71.816 86.0145 72.264C86.0145 73.096 86.0785 73.96 86.2065 74.856C86.3345 75.752 86.5585 76.584 86.8785 77.352C87.1985 78.12 87.6465 78.76 88.2225 79.272C88.7985 79.72 89.5345 79.944 90.4305 79.944C92.1585 79.944 93.8545 79.56 95.5185 78.792C97.1825 78.024 98.7505 77.096 100.223 76.008C101.759 74.856 103.167 73.64 104.447 72.36C105.791 71.016 106.975 69.8 107.999 68.712C108.639 69.288 109.183 69.832 109.631 70.344C106.751 74.184 103.583 77.384 100.127 79.944C96.7345 82.44 93.5025 84.04 90.4305 84.744C86.0145 84.232 82.5585 82.632 80.0625 79.944C77.6305 77.192 76.4145 73.896 76.4145 70.056C76.4145 67.432 76.7665 64.776 77.4705 62.088C78.2385 59.336 79.2625 56.712 80.5425 54.216C81.8865 51.656 83.4225 49.256 85.1505 47.016C86.9425 44.776 88.8305 42.824 90.8145 41.16C92.8625 39.496 94.9425 38.184 97.0545 37.224C99.2305 36.264 101.375 35.784 103.487 35.784C106.431 36.168 109.183 37.992 111.743 41.256ZM105.119 44.424C103.391 44.68 101.599 45.384 99.7425 46.536C97.8865 47.688 96.1265 49.224 94.4625 51.144C92.8625 53.064 91.3905 55.304 90.0465 57.864C88.7025 60.424 87.6465 63.176 86.8785 66.12C91.9985 63.56 96.2545 60.424 99.6465 56.712C103.039 52.936 104.863 48.84 105.119 44.424ZM120.811 47.016C120.811 45.864 120.875 44.776 121.003 43.752C121.195 42.728 121.547 41.864 122.059 41.16C122.571 40.392 123.275 39.816 124.171 39.432C125.067 38.984 126.251 38.76 127.723 38.76C128.619 38.76 129.611 38.856 130.699 39.048C131.851 39.24 132.683 39.592 133.195 40.104C132.939 41.192 132.715 42.152 132.523 42.984C132.395 43.816 132.267 44.744 132.139 45.768C132.075 46.728 132.011 47.912 131.947 49.32C131.883 50.664 131.819 52.424 131.755 54.6C131.627 58.952 131.403 62.856 131.083 66.312C130.827 69.704 130.187 73.096 129.163 76.488C129.163 76.744 129.259 76.872 129.451 76.872C130.411 76.168 131.499 75.144 132.715 73.8C133.931 72.456 135.211 70.952 136.555 69.288C137.899 67.56 139.243 65.736 140.587 63.816C141.931 61.896 143.179 60.008 144.331 58.152C145.867 55.464 147.563 52.104 149.419 48.072C151.275 44.04 152.811 39.72 154.027 35.112C154.411 35.112 154.891 35.208 155.467 35.4C156.107 35.528 156.715 35.72 157.291 35.976C157.931 36.168 158.475 36.392 158.923 36.648C159.435 36.904 159.787 37.128 159.979 37.32C159.851 40.072 159.179 42.888 157.963 45.768C156.811 48.648 155.403 51.432 153.739 54.12C152.075 56.808 150.315 59.336 148.459 61.704C146.603 64.072 144.907 66.12 143.371 67.848C140.299 71.432 137.195 74.632 134.059 77.448C130.987 80.264 127.307 82.984 123.019 85.608C121.355 84.968 120.043 84.104 119.083 83.016C118.123 81.992 117.643 80.904 117.643 79.752C117.643 78.984 117.803 78.12 118.123 77.16C118.507 76.136 118.923 74.856 119.371 73.32C119.819 71.72 120.203 69.736 120.523 67.368C120.907 65 121.099 61.992 121.099 58.344C121.099 56.232 121.035 54.12 120.907 52.008C120.843 49.832 120.811 48.168 120.811 47.016ZM192.93 41.256C192.674 45.224 191.97 48.648 190.818 51.528C189.666 54.344 188.002 56.84 185.826 59.016C183.714 61.128 181.122 63.048 178.05 64.776C174.978 66.504 171.394 68.168 167.298 69.768C167.298 70.152 167.266 70.568 167.202 71.016C167.202 71.4 167.202 71.816 167.202 72.264C167.202 73.096 167.266 73.96 167.394 74.856C167.522 75.752 167.746 76.584 168.066 77.352C168.386 78.12 168.834 78.76 169.41 79.272C169.986 79.72 170.722 79.944 171.618 79.944C173.346 79.944 175.042 79.56 176.706 78.792C178.37 78.024 179.938 77.096 181.41 76.008C182.946 74.856 184.354 73.64 185.634 72.36C186.978 71.016 188.162 69.8 189.186 68.712C189.826 69.288 190.37 69.832 190.818 70.344C187.938 74.184 184.77 77.384 181.314 79.944C177.922 82.44 174.69 84.04 171.618 84.744C167.202 84.232 163.746 82.632 161.25 79.944C158.818 77.192 157.602 73.896 157.602 70.056C157.602 67.432 157.954 64.776 158.658 62.088C159.426 59.336 160.45 56.712 161.73 54.216C163.074 51.656 164.61 49.256 166.338 47.016C168.13 44.776 170.018 42.824 172.002 41.16C174.05 39.496 176.13 38.184 178.242 37.224C180.418 36.264 182.562 35.784 184.674 35.784C187.618 36.168 190.37 37.992 192.93 41.256ZM186.306 44.424C184.578 44.68 182.786 45.384 180.93 46.536C179.074 47.688 177.314 49.224 175.65 51.144C174.05 53.064 172.578 55.304 171.234 57.864C169.89 60.424 168.834 63.176 168.066 66.12C173.186 63.56 177.442 60.424 180.834 56.712C184.226 52.936 186.05 48.84 186.306 44.424ZM197.279 74.856C197.279 72.04 197.951 68.104 199.295 63.048C200.639 57.928 202.527 51.976 204.959 45.192C208.927 34.376 212.639 25.384 216.095 18.216C219.615 10.984 223.039 5.352 226.367 1.32C227.135 1.44799 228.063 1.76799 229.151 2.27999C230.303 2.792 231.423 3.368 232.511 4.008C233.599 4.584 234.559 5.192 235.391 5.832C236.287 6.47199 236.863 6.984 237.119 7.368C232.127 13.256 227.743 19.592 223.967 26.376C220.191 33.16 216.735 40.936 213.599 49.704C210.911 57.256 208.863 64.072 207.455 70.152C206.047 76.168 205.343 81.192 205.343 85.224C205.343 86.312 205.343 86.984 205.343 87.24C205.343 87.496 205.375 87.752 205.439 88.008C204.543 87.88 203.775 87.656 203.135 87.336C202.495 87.016 202.079 86.632 201.887 86.184C201.759 85.864 201.407 85.384 200.831 84.744C200.255 84.168 199.743 83.72 199.295 83.4C198.719 83.016 198.239 82.024 197.855 80.424C197.471 78.76 197.279 76.904 197.279 74.856Z" fill="#FF8484" shape-rendering="crispEdges"/>
<path d="M286.59 28.104C286.59 32.072 285.502 35.624 283.326 38.76C281.15 41.832 278.174 44.392 274.398 46.44C276.83 48.104 278.75 50.152 280.158 52.584C281.63 54.952 282.366 57.576 282.366 60.456C282.366 63.912 281.31 67.336 279.198 70.728C277.15 74.056 274.398 77.032 270.942 79.656C267.486 82.216 263.55 84.296 259.134 85.896C254.718 87.496 250.206 88.296 245.598 88.296C240.606 88.296 236.222 87.336 232.446 85.416C228.734 83.56 225.822 80.904 223.71 77.448C224.35 75.528 225.182 73.16 226.206 70.344C227.294 67.464 228.478 64.456 229.758 61.32C231.038 58.12 232.318 54.952 233.598 51.816C234.942 48.68 236.19 45.864 237.342 43.368C239.774 37.928 241.95 33.416 243.87 29.832C245.79 26.248 247.55 23.4 249.15 21.288C245.63 22.376 242.43 23.624 239.55 25.032C236.67 26.376 234.558 27.688 233.214 28.968C232.638 28.584 232.03 28.008 231.39 27.24C230.814 26.472 230.238 25.64 229.662 24.744C229.15 23.784 228.702 22.824 228.318 21.864C227.998 20.904 227.806 20.04 227.742 19.272C229.406 18.12 231.55 17.032 234.174 16.008C236.862 14.92 239.774 13.992 242.91 13.224C246.046 12.456 249.246 11.848 252.51 11.4C255.838 10.952 259.006 10.728 262.014 10.728C269.694 10.728 275.71 12.264 280.062 15.336C284.414 18.408 286.59 22.664 286.59 28.104ZM250.014 51.048C248.798 50.472 247.678 49.608 246.654 48.456C245.182 51.72 243.774 54.92 242.43 58.056C241.15 61.192 239.998 64.104 238.974 66.792C237.95 69.48 237.118 71.816 236.478 73.8C235.838 75.784 235.486 77.224 235.422 78.12C236.318 78.632 237.374 79.016 238.59 79.272C239.87 79.528 241.438 79.656 243.294 79.656C247.646 79.656 251.806 79.048 255.774 77.832C259.742 76.616 263.23 74.984 266.238 72.936C269.246 70.824 271.646 68.424 273.438 65.736C275.23 63.048 276.126 60.232 276.126 57.288C276.126 53.064 274.302 50.024 270.654 48.168C265.662 50.216 260.03 51.24 253.758 51.24C252.862 51.24 252.158 51.24 251.646 51.24C251.198 51.24 250.654 51.176 250.014 51.048ZM268.638 17.736C267.294 17.736 265.854 17.832 264.318 18.024C262.846 18.152 261.278 18.376 259.614 18.696C259.87 18.952 260.062 19.24 260.19 19.56C260.382 19.816 260.542 20.104 260.67 20.424C260.094 21.192 259.39 22.312 258.558 23.784C257.726 25.256 256.798 26.984 255.774 28.968C254.75 30.888 253.662 33.032 252.51 35.4C251.422 37.768 250.302 40.2 249.15 42.696C250.238 42.44 251.55 42.248 253.086 42.12C254.686 41.928 256.254 41.832 257.79 41.832C258.622 41.832 259.422 41.864 260.19 41.928C261.022 41.992 261.822 42.088 262.59 42.216C265.662 41.704 268.414 40.968 270.846 40.008C273.342 38.984 275.486 37.832 277.278 36.552C279.07 35.208 280.446 33.736 281.406 32.136C282.366 30.536 282.846 28.84 282.846 27.048C282.846 23.976 281.63 21.672 279.198 20.136C276.766 18.536 273.246 17.736 268.638 17.736ZM288.029 74.856C288.029 72.04 288.701 68.104 290.045 63.048C291.389 57.928 293.277 51.976 295.709 45.192C299.677 34.376 303.389 25.384 306.845 18.216C310.365 10.984 313.789 5.352 317.117 1.32C317.885 1.44799 318.813 1.76799 319.901 2.27999C321.053 2.792 322.173 3.368 323.261 4.008C324.349 4.584 325.309 5.192 326.141 5.832C327.037 6.47199 327.613 6.984 327.869 7.368C322.877 13.256 318.493 19.592 314.717 26.376C310.941 33.16 307.485 40.936 304.349 49.704C301.661 57.256 299.613 64.072 298.205 70.152C296.797 76.168 296.093 81.192 296.093 85.224C296.093 86.312 296.093 86.984 296.093 87.24C296.093 87.496 296.125 87.752 296.189 88.008C295.293 87.88 294.525 87.656 293.885 87.336C293.245 87.016 292.829 86.632 292.637 86.184C292.509 85.864 292.157 85.384 291.581 84.744C291.005 84.168 290.493 83.72 290.045 83.4C289.469 83.016 288.989 82.024 288.605 80.424C288.221 78.76 288.029 76.904 288.029 74.856ZM321.765 84.36C318.117 83.976 315.205 82.376 313.029 79.56C310.853 76.744 309.765 73.16 309.765 68.808C309.765 66.248 310.149 63.592 310.917 60.84C311.685 58.088 312.773 55.432 314.181 52.872C315.589 50.248 317.253 47.784 319.173 45.48C321.093 43.176 323.173 41.192 325.413 39.528C328.933 36.904 332.229 35.592 335.301 35.592C337.349 36.68 339.365 38.952 341.349 42.408C341.669 42.408 341.957 42.408 342.213 42.408C342.469 42.344 342.757 42.312 343.077 42.312C346.469 42.312 348.165 45.32 348.165 51.336C348.165 55.368 347.493 59.208 346.149 62.856C344.869 66.44 343.045 69.704 340.677 72.648C338.373 75.592 335.589 78.088 332.325 80.136C329.125 82.12 325.605 83.528 321.765 84.36ZM326.661 54.12C325.573 55.592 324.549 57.192 323.589 58.92C322.629 60.648 321.797 62.408 321.093 64.2C320.389 65.928 319.845 67.624 319.461 69.288C319.077 70.888 318.885 72.328 318.885 73.608C318.885 75.144 319.141 76.616 319.653 78.024C320.165 79.432 320.741 80.232 321.381 80.424C324.261 79.784 326.885 78.6 329.253 76.872C331.685 75.08 333.765 72.872 335.493 70.248C337.285 67.624 338.661 64.648 339.621 61.32C340.645 57.992 341.157 54.44 341.157 50.664C341.157 49 341.061 47.688 340.869 46.728C340.677 45.768 340.357 44.936 339.909 44.232C337.093 45.064 334.565 46.408 332.325 48.264C330.149 50.12 328.261 52.072 326.661 54.12ZM333.42 109.608C333.42 109.224 333.548 108.872 333.804 108.552C334.06 108.232 334.348 107.912 334.668 107.592C335.436 108.296 336.108 108.84 336.684 109.224C337.196 109.608 337.708 109.928 338.22 110.184C338.668 110.44 339.148 110.6 339.66 110.664C340.172 110.728 340.78 110.76 341.484 110.76C344.812 110.76 347.98 109.864 350.988 108.072C353.996 106.344 356.812 103.816 359.436 100.488C362.124 97.16 364.556 93.096 366.732 88.296C368.908 83.496 370.828 78.056 372.492 71.976C371.724 72.744 370.764 73.608 369.612 74.568C368.524 75.464 367.372 76.328 366.156 77.16C364.94 77.992 363.724 78.76 362.508 79.464C361.356 80.168 360.364 80.68 359.532 81C358.444 80.808 357.42 80.36 356.46 79.656C355.564 78.888 354.764 77.96 354.06 76.872C353.356 75.784 352.812 74.568 352.428 73.224C352.044 71.816 351.852 70.344 351.852 68.808C351.852 66.312 352.3 63.752 353.196 61.128C354.156 58.504 355.404 55.944 356.94 53.448C358.476 50.888 360.268 48.488 362.316 46.248C364.428 44.008 366.636 42.056 368.94 40.392C371.308 38.728 373.676 37.416 376.044 36.456C378.476 35.432 380.844 34.92 383.148 34.92C385.388 34.92 387.052 35.4 388.14 36.36C389.292 37.256 390.124 38.824 390.636 41.064C389.932 40.68 389.036 40.488 387.948 40.488C386.412 40.488 384.62 41.096 382.572 42.312C380.588 43.528 378.54 45.128 376.428 47.112C374.38 49.032 372.332 51.272 370.284 53.832C368.236 56.328 366.412 58.888 364.812 61.512C363.276 64.136 361.996 66.696 360.972 69.192C360.012 71.688 359.532 73.928 359.532 75.912C359.532 76.36 359.564 76.648 359.628 76.776C359.692 76.84 359.788 76.872 359.916 76.872C360.492 76.872 361.26 76.552 362.22 75.912C363.244 75.272 364.364 74.472 365.58 73.512C366.86 72.488 368.172 71.336 369.516 70.056C370.86 68.712 372.14 67.368 373.356 66.024C376.108 62.952 378.604 59.528 380.844 55.752C383.148 51.912 384.972 48.2 386.316 44.616C388.044 44.744 389.58 45.032 390.924 45.48C392.268 45.928 393.196 46.408 393.708 46.92C391.532 51.912 389.772 56.104 388.428 59.496C387.148 62.888 386.028 65.896 385.068 68.52C383.34 73.128 381.708 77.32 380.172 81.096C378.7 84.936 377.164 88.456 375.564 91.656C374.028 94.92 372.332 97.928 370.476 100.68C368.684 103.496 366.636 106.184 364.332 108.744C363.244 109.96 361.996 111.016 360.588 111.912C359.244 112.872 357.836 113.672 356.364 114.312C354.956 114.952 353.548 115.432 352.14 115.752C350.796 116.072 349.548 116.232 348.396 116.232C346.86 116.232 345.292 116.04 343.692 115.656C342.092 115.336 340.62 114.856 339.276 114.216C337.868 113.64 336.652 112.936 335.628 112.104C334.604 111.336 333.868 110.504 333.42 109.608Z" fill="url(#paint0_linear_28_369)" shape-rendering="crispEdges"/>
</g>
<defs>
<filter id="filter0_d_28_369" x="0.0172501" y="0.319992" width="396.691" height="120.912" filterUnits="userSpaceOnUse" color-interpolation-filters="sRGB">
<feFlood flood-opacity="0" result="BackgroundImageFix"/>
<feColorMatrix in="SourceAlpha" type="matrix" values="0 0 0 0 0 0 0 0 0 0 0 0 0 0 0 0 0 0 127 0" result="hardAlpha"/>
<feOffset dy="2"/>
<feGaussianBlur stdDeviation="1.5"/>
<feComposite in2="hardAlpha" operator="out"/>
<feColorMatrix type="matrix" values="0 0 0 0 0 0 0 0 0 0 0 0 0 0 0 0 0 0 0.4 0"/>
<feBlend mode="normal" in2="BackgroundImageFix" result="effect1_dropShadow_28_369"/>
<feBlend mode="normal" in="SourceGraphic" in2="effect1_dropShadow_28_369" result="shape"/>
</filter>
<linearGradient id="paint0_linear_28_369" x1="387" y1="-23" x2="-13.3954" y2="128.194" gradientUnits="userSpaceOnUse">
<stop stop-color="#33B6FF" stop-opacity="0.91"/>
<stop offset="1" stop-color="#484DC1"/>
</linearGradient>
</defs>
</svg>
