<svg width="1542" height="458" viewBox="0 0 1542 458" fill="none" xmlns="http://www.w3.org/2000/svg">
<g filter="url(#filter0_d_28_369)">
<path d="M35.0931 85.538C25.0398 85.538 17.2485 82.7733 11.7191 77.244C6.44112 71.4633 3.80212 64.5517 3.80212 56.509C3.80212 54.4983 4.05345 52.1107 4.55612 49.346C5.31012 46.5813 6.18979 44.1936 7.19512 42.183C10.4625 43.691 15.2378 44.822 21.5211 45.576C28.0558 46.0787 35.5958 46.33 44.1411 46.33C56.9591 46.33 71.4108 45.8273 87.4961 44.822C103.833 43.5653 119.415 42.3087 134.244 41.052C149.073 39.7953 162.142 38.6643 173.452 37.659C184.762 36.4023 192.051 35.774 195.318 35.774C204.617 35.774 211.278 39.2927 215.299 46.33C219.572 53.116 222.713 62.2897 224.724 73.851C218.189 73.3483 211.655 72.9713 205.12 72.72C198.837 72.2173 193.433 71.966 188.909 71.966C180.866 71.966 172.698 72.2173 164.404 72.72C156.361 73.2227 148.193 73.9767 139.899 74.982C136.38 82.2707 132.485 90.9417 128.212 100.995C123.939 110.797 119.667 121.102 115.394 131.909C111.373 142.716 107.477 153.524 103.707 164.331C99.9371 174.887 96.6698 184.438 93.9051 192.983C88.3758 209.571 83.4748 224.902 79.2021 238.977C75.1808 253.052 71.5365 266.247 68.2691 278.562C65.2531 290.626 62.6141 302.187 60.3521 313.246C58.0901 324.305 56.0795 335.112 54.3201 345.668C37.4808 343.155 23.4061 332.599 12.0961 314C14.1068 306.209 16.4945 297.789 19.2591 288.741C22.2751 279.442 25.6681 269.011 29.4381 257.45C33.4595 245.637 38.1091 232.317 43.3871 217.488C48.6651 202.659 54.6971 185.82 61.4831 166.97C63.9965 159.933 66.6355 152.644 69.4001 145.104C72.1648 137.313 74.8038 129.647 77.3171 122.107C80.0818 114.567 82.4695 107.278 84.4801 100.241C86.7421 93.2037 88.6271 86.7947 90.1351 81.014C79.5791 82.2707 69.5258 83.4017 59.9751 84.407C50.6758 85.161 42.3818 85.538 35.0931 85.538ZM134.709 306.46C135.966 299.171 138.102 289.621 141.118 277.808C144.386 265.744 148.156 253.052 152.428 239.731C156.701 226.159 161.225 212.587 166 199.015C170.776 185.443 175.425 173.253 179.949 162.446C183.217 154.655 186.107 148.623 188.62 144.35C191.134 139.826 193.898 136.056 196.914 133.04C200.433 133.543 204.077 134.422 207.847 135.679C211.617 136.936 215.262 138.444 218.78 140.203C222.299 141.962 225.441 143.847 228.205 145.858C230.97 147.617 233.106 149.377 234.614 151.136C227.828 159.179 221.796 168.352 216.518 178.657C211.492 188.962 206.339 202.157 201.061 218.242C214.633 206.178 226.572 194.617 236.876 183.558C247.432 172.499 257.234 160.184 266.282 146.612C267.79 145.355 270.429 144.727 274.199 144.727C277.718 144.727 281.111 145.355 284.378 146.612C287.646 147.617 289.908 149.125 291.164 151.136C286.64 163.2 284.378 175.138 284.378 186.951C284.378 198.01 286.012 206.304 289.279 211.833C289.028 213.341 287.269 216.231 284.001 220.504C280.985 224.777 277.592 228.798 273.822 232.568C267.036 229.049 261.004 224.274 255.726 218.242C250.448 211.959 246.553 205.173 244.039 197.884C232.227 206.178 222.173 214.346 213.879 222.389C205.585 230.18 198.422 238.977 192.39 248.779C186.61 258.33 181.583 269.388 177.31 281.955C173.289 294.522 169.393 309.476 165.623 326.818C163.361 326.567 160.597 325.687 157.329 324.179C154.313 322.922 151.172 321.289 147.904 319.278C144.888 317.267 142.124 315.131 139.61 312.869C137.097 310.607 135.463 308.471 134.709 306.46ZM430.775 157.922C429.77 173.505 427.005 186.951 422.481 198.261C417.957 209.32 411.423 219.122 402.877 227.667C394.583 235.961 384.404 243.501 372.34 250.287C360.276 257.073 346.202 263.608 330.116 269.891C330.116 271.399 329.991 273.033 329.739 274.792C329.739 276.3 329.739 277.934 329.739 279.693C329.739 282.96 329.991 286.353 330.493 289.872C330.996 293.391 331.876 296.658 333.132 299.674C334.389 302.69 336.148 305.203 338.41 307.214C340.672 308.973 343.563 309.853 347.081 309.853C353.867 309.853 360.528 308.345 367.062 305.329C373.597 302.313 379.755 298.669 385.535 294.396C391.567 289.872 397.097 285.097 402.123 280.07C407.401 274.792 412.051 270.017 416.072 265.744C418.586 268.006 420.722 270.142 422.481 272.153C411.171 287.233 398.73 299.8 385.158 309.853C371.838 319.655 359.145 325.938 347.081 328.703C329.739 326.692 316.167 320.409 306.365 309.853C296.815 299.046 292.039 286.102 292.039 271.022C292.039 260.717 293.422 250.287 296.186 239.731C299.202 228.924 303.224 218.619 308.25 208.817C313.528 198.764 319.56 189.339 326.346 180.542C333.384 171.745 340.798 164.08 348.589 157.545C356.632 151.01 364.8 145.858 373.094 142.088C381.64 138.318 390.059 136.433 398.353 136.433C409.915 137.941 420.722 145.104 430.775 157.922ZM404.762 170.363C397.976 171.368 390.939 174.133 383.65 178.657C376.362 183.181 369.45 189.213 362.915 196.753C356.632 204.293 350.851 213.09 345.573 223.143C340.295 233.196 336.148 244.004 333.132 255.565C353.239 245.512 369.953 233.196 383.273 218.619C396.594 203.79 403.757 187.705 404.762 170.363ZM466.387 180.542C466.387 176.018 466.638 171.745 467.141 167.724C467.895 163.703 469.277 160.31 471.288 157.545C473.299 154.529 476.063 152.267 479.582 150.759C483.101 149 487.75 148.12 493.531 148.12C497.05 148.12 500.945 148.497 505.218 149.251C509.742 150.005 513.009 151.387 515.02 153.398C514.015 157.671 513.135 161.441 512.381 164.708C511.878 167.975 511.376 171.62 510.873 175.641C510.622 179.411 510.37 184.061 510.119 189.59C509.868 194.868 509.616 201.78 509.365 210.325C508.862 227.416 507.983 242.747 506.726 256.319C505.721 269.64 503.207 282.96 499.186 296.281C499.186 297.286 499.563 297.789 500.317 297.789C504.087 295.024 508.36 291.003 513.135 285.725C517.91 280.447 522.937 274.541 528.215 268.006C533.493 261.22 538.771 254.057 544.049 246.517C549.327 238.977 554.228 231.563 558.752 224.274C564.784 213.718 571.444 200.523 578.733 184.689C586.022 168.855 592.054 151.89 596.829 133.794C598.337 133.794 600.222 134.171 602.484 134.925C604.997 135.428 607.385 136.182 609.647 137.187C612.16 137.941 614.297 138.821 616.056 139.826C618.067 140.831 619.449 141.711 620.203 142.465C619.7 153.272 617.061 164.331 612.286 175.641C607.762 186.951 602.233 197.884 595.698 208.44C589.163 218.996 582.252 228.924 574.963 238.223C567.674 247.522 561.014 255.565 554.982 262.351C542.918 276.426 530.728 288.992 518.413 300.051C506.349 311.11 491.897 321.791 475.058 332.096C468.523 329.583 463.371 326.19 459.601 321.917C455.831 317.896 453.946 313.623 453.946 309.099C453.946 306.083 454.574 302.69 455.831 298.92C457.339 294.899 458.973 289.872 460.732 283.84C462.491 277.557 463.999 269.765 465.256 260.466C466.764 251.167 467.518 239.354 467.518 225.028C467.518 216.734 467.267 208.44 466.764 200.146C466.513 191.601 466.387 185.066 466.387 180.542ZM749.605 157.922C748.6 173.505 745.835 186.951 741.311 198.261C736.787 209.32 730.253 219.122 721.707 227.667C713.413 235.961 703.234 243.501 691.17 250.287C679.106 257.073 665.032 263.608 648.946 269.891C648.946 271.399 648.821 273.033 648.569 274.792C648.569 276.3 648.569 277.934 648.569 279.693C648.569 282.96 648.821 286.353 649.323 289.872C649.826 293.391 650.706 296.658 651.962 299.674C653.219 302.69 654.978 305.203 657.24 307.214C659.502 308.973 662.393 309.853 665.911 309.853C672.697 309.853 679.358 308.345 685.892 305.329C692.427 302.313 698.585 298.669 704.365 294.396C710.397 289.872 715.927 285.097 720.953 280.07C726.231 274.792 730.881 270.017 734.902 265.744C737.416 268.006 739.552 270.142 741.311 272.153C730.001 287.233 717.56 299.8 703.988 309.853C690.668 319.655 677.975 325.938 665.911 328.703C648.569 326.692 634.997 320.409 625.195 309.853C615.645 299.046 610.869 286.102 610.869 271.022C610.869 260.717 612.252 250.287 615.016 239.731C618.032 228.924 622.054 218.619 627.08 208.817C632.358 198.764 638.39 189.339 645.176 180.542C652.214 171.745 659.628 164.08 667.419 157.545C675.462 151.01 683.63 145.858 691.924 142.088C700.47 138.318 708.889 136.433 717.183 136.433C728.745 137.941 739.552 145.104 749.605 157.922ZM723.592 170.363C716.806 171.368 709.769 174.133 702.48 178.657C695.192 183.181 688.28 189.213 681.745 196.753C675.462 204.293 669.681 213.09 664.403 223.143C659.125 233.196 654.978 244.004 651.962 255.565C672.069 245.512 688.783 233.196 702.103 218.619C715.424 203.79 722.587 187.705 723.592 170.363ZM766.682 289.872C766.682 278.813 769.321 263.356 774.599 243.501C779.877 223.394 787.292 200.02 796.842 173.379C812.425 130.904 827.002 95.5913 840.574 67.442C854.398 39.0413 867.844 16.924 880.913 1.08998C883.929 1.59264 887.574 2.84931 891.846 4.85998C896.37 6.87065 900.769 9.13265 905.041 11.646C909.314 13.908 913.084 16.2956 916.351 18.809C919.87 21.3223 922.132 23.333 923.137 24.841C903.533 47.9637 886.317 72.8457 871.488 99.487C856.66 126.128 843.088 156.665 830.772 191.098C820.216 220.755 812.174 247.522 806.644 271.399C801.115 295.024 798.35 314.754 798.35 330.588C798.35 334.861 798.35 337.5 798.35 338.505C798.35 339.51 798.476 340.516 798.727 341.521C795.209 341.018 792.193 340.139 789.679 338.882C787.166 337.625 785.532 336.117 784.778 334.358C784.276 333.101 782.893 331.216 780.631 328.703C778.369 326.441 776.359 324.682 774.599 323.425C772.337 321.917 770.452 318.021 768.944 311.738C767.436 305.203 766.682 297.915 766.682 289.872Z" fill="white" shape-rendering="crispEdges"/>
<path d="M1117.42 106.273C1117.42 121.856 1113.14 135.805 1104.6 148.12C1096.05 160.184 1084.37 170.237 1069.54 178.28C1079.09 184.815 1086.63 192.857 1092.16 202.408C1097.94 211.707 1100.83 222.012 1100.83 233.322C1100.83 246.894 1096.68 260.34 1088.39 273.661C1080.34 286.73 1069.54 298.417 1055.96 308.722C1042.39 318.775 1026.94 326.944 1009.59 333.227C992.252 339.51 974.533 342.652 956.437 342.652C936.833 342.652 919.617 338.882 904.788 331.342C890.211 324.053 878.775 313.623 870.481 300.051C872.994 292.511 876.262 283.212 880.283 272.153C884.556 260.843 889.205 249.03 894.232 236.715C899.259 224.148 904.285 211.707 909.312 199.392C914.59 187.077 919.491 176.018 924.015 166.216C933.566 144.853 942.111 127.134 949.651 113.059C957.191 98.9843 964.103 87.8 970.386 79.506C956.563 83.7787 943.996 88.6797 932.686 94.209C921.376 99.487 913.082 104.639 907.804 109.666C905.542 108.158 903.154 105.896 900.641 102.88C898.379 99.864 896.117 96.5967 893.855 93.078C891.844 89.308 890.085 85.538 888.577 81.768C887.32 77.998 886.566 74.605 886.315 71.589C892.85 67.065 901.269 62.7923 911.574 58.771C922.13 54.4983 933.566 50.854 945.881 47.838C958.196 44.822 970.763 42.4343 983.581 40.675C996.65 38.9157 1009.09 38.036 1020.9 38.036C1051.06 38.036 1074.69 44.068 1091.78 56.132C1108.87 68.196 1117.42 84.9097 1117.42 106.273ZM973.779 196.376C969.004 194.114 964.605 190.721 960.584 186.197C954.803 199.015 949.274 211.582 943.996 223.897C938.969 236.212 934.445 247.648 930.424 258.204C926.403 268.76 923.135 277.934 920.622 285.725C918.109 293.516 916.726 299.171 916.475 302.69C919.994 304.701 924.141 306.209 928.916 307.214C933.943 308.219 940.1 308.722 947.389 308.722C964.48 308.722 980.816 306.334 996.399 301.559C1011.98 296.784 1025.68 290.375 1037.49 282.332C1049.3 274.038 1058.73 264.613 1065.77 254.057C1072.8 243.501 1076.32 232.442 1076.32 220.881C1076.32 204.293 1069.16 192.355 1054.83 185.066C1035.23 193.109 1013.11 197.13 988.482 197.13C984.963 197.13 982.199 197.13 980.188 197.13C978.429 197.13 976.292 196.879 973.779 196.376ZM1046.92 65.557C1041.64 65.557 1035.98 65.934 1029.95 66.688C1024.17 67.1907 1018.01 68.0703 1011.48 69.327C1012.48 70.3323 1013.24 71.4633 1013.74 72.72C1014.49 73.7253 1015.12 74.8563 1015.63 76.113C1013.36 79.129 1010.6 83.5273 1007.33 89.308C1004.06 95.0887 1000.42 101.875 996.399 109.666C992.378 117.206 988.105 125.626 983.581 134.925C979.308 144.224 974.91 153.775 970.386 163.577C974.659 162.572 979.811 161.818 985.843 161.315C992.126 160.561 998.284 160.184 1004.32 160.184C1007.58 160.184 1010.72 160.31 1013.74 160.561C1017.01 160.812 1020.15 161.189 1023.17 161.692C1035.23 159.681 1046.04 156.791 1055.59 153.021C1065.39 149 1073.81 144.476 1080.85 139.449C1087.88 134.171 1093.29 128.39 1097.06 122.107C1100.83 115.824 1102.71 109.163 1102.71 102.126C1102.71 90.062 1097.94 81.014 1088.39 74.982C1078.84 68.6987 1065.01 65.557 1046.92 65.557ZM1123.07 289.872C1123.07 278.813 1125.7 263.356 1130.98 243.501C1136.26 223.394 1143.67 200.02 1153.23 173.379C1168.81 130.904 1183.39 95.5913 1196.96 67.442C1210.78 39.0413 1224.23 16.924 1237.3 1.08998C1240.31 1.59264 1243.96 2.84931 1248.23 4.85998C1252.75 6.87065 1257.15 9.13265 1261.42 11.646C1265.7 13.908 1269.47 16.2956 1272.73 18.809C1276.25 21.3223 1278.51 23.333 1279.52 24.841C1259.92 47.9637 1242.7 72.8457 1227.87 99.487C1213.04 126.128 1199.47 156.665 1187.16 191.098C1176.6 220.755 1168.56 247.522 1163.03 271.399C1157.5 295.024 1154.73 314.754 1154.73 330.588C1154.73 334.861 1154.73 337.5 1154.73 338.505C1154.73 339.51 1154.86 340.516 1155.11 341.521C1151.59 341.018 1148.58 340.139 1146.06 338.882C1143.55 337.625 1141.92 336.117 1141.16 334.358C1140.66 333.101 1139.28 331.216 1137.01 328.703C1134.75 326.441 1132.74 324.682 1130.98 323.425C1128.72 321.917 1126.84 318.021 1125.33 311.738C1123.82 305.203 1123.07 297.915 1123.07 289.872ZM1255.55 327.195C1241.23 325.687 1229.79 319.404 1221.24 308.345C1212.7 297.286 1208.43 283.212 1208.43 266.121C1208.43 256.068 1209.93 245.637 1212.95 234.83C1215.97 224.023 1220.24 213.592 1225.77 203.539C1231.3 193.234 1237.83 183.558 1245.37 174.51C1252.91 165.462 1261.08 157.671 1269.88 151.136C1283.7 140.831 1296.64 135.679 1308.71 135.679C1316.75 139.952 1324.67 148.874 1332.46 162.446C1333.72 162.446 1334.85 162.446 1335.85 162.446C1336.86 162.195 1337.99 162.069 1339.25 162.069C1352.57 162.069 1359.23 173.882 1359.23 197.507C1359.23 213.341 1356.59 228.421 1351.31 242.747C1346.28 256.822 1339.12 269.64 1329.82 281.201C1320.77 292.762 1309.84 302.564 1297.02 310.607C1284.45 318.398 1270.63 323.928 1255.55 327.195ZM1274.78 208.44C1270.51 214.221 1266.48 220.504 1262.71 227.29C1258.94 234.076 1255.68 240.988 1252.91 248.025C1250.15 254.811 1248.01 261.471 1246.5 268.006C1245 274.289 1244.24 279.944 1244.24 284.971C1244.24 291.003 1245.25 296.784 1247.26 302.313C1249.27 307.842 1251.53 310.984 1254.04 311.738C1265.35 309.225 1275.66 304.575 1284.96 297.789C1294.51 290.752 1302.68 282.081 1309.46 271.776C1316.5 261.471 1321.9 249.784 1325.67 236.715C1329.69 223.646 1331.71 209.697 1331.71 194.868C1331.71 188.333 1331.33 183.181 1330.57 179.411C1329.82 175.641 1328.56 172.374 1326.8 169.609C1315.75 172.876 1305.82 178.154 1297.02 185.443C1288.48 192.732 1281.06 200.397 1274.78 208.44ZM1301.32 426.346C1301.32 424.838 1301.82 423.456 1302.83 422.199C1303.83 420.942 1304.97 419.686 1306.22 418.429C1309.24 421.194 1311.88 423.33 1314.14 424.838C1316.15 426.346 1318.16 427.603 1320.17 428.608C1321.93 429.613 1323.82 430.242 1325.83 430.493C1327.84 430.744 1330.22 430.87 1332.99 430.87C1346.06 430.87 1358.5 427.351 1370.31 420.314C1382.12 413.528 1393.18 403.6 1403.49 390.531C1414.04 377.462 1423.59 361.502 1432.14 342.652C1440.69 323.802 1448.23 302.439 1454.76 278.562C1451.74 281.578 1447.97 284.971 1443.45 288.741C1439.18 292.26 1434.65 295.653 1429.88 298.92C1425.1 302.187 1420.33 305.203 1415.55 307.968C1411.03 310.733 1407.13 312.743 1403.87 314C1399.59 313.246 1395.57 311.487 1391.8 308.722C1388.28 305.706 1385.14 302.062 1382.38 297.789C1379.61 293.516 1377.48 288.741 1375.97 283.463C1374.46 277.934 1373.71 272.153 1373.71 266.121C1373.71 256.319 1375.46 246.266 1378.98 235.961C1382.75 225.656 1387.65 215.603 1393.69 205.801C1399.72 195.748 1406.76 186.323 1414.8 177.526C1423.09 168.729 1431.76 161.064 1440.81 154.529C1450.11 147.994 1459.41 142.842 1468.71 139.072C1478.26 135.051 1487.56 133.04 1496.61 133.04C1505.4 133.04 1511.94 134.925 1516.21 138.695C1520.74 142.214 1524 148.371 1526.01 157.168C1523.25 155.66 1519.73 154.906 1515.46 154.906C1509.43 154.906 1502.39 157.294 1494.35 162.069C1486.55 166.844 1478.51 173.128 1470.22 180.919C1462.17 188.459 1454.13 197.256 1446.09 207.309C1438.05 217.111 1430.88 227.164 1424.6 237.469C1418.57 247.774 1413.54 257.827 1409.52 267.629C1405.75 277.431 1403.87 286.228 1403.87 294.019C1403.87 295.778 1403.99 296.909 1404.24 297.412C1404.49 297.663 1404.87 297.789 1405.37 297.789C1407.64 297.789 1410.65 296.532 1414.42 294.019C1418.44 291.506 1422.84 288.364 1427.62 284.594C1432.64 280.573 1437.8 276.049 1443.07 271.022C1448.35 265.744 1453.38 260.466 1458.15 255.188C1468.96 243.124 1478.76 229.678 1487.56 214.849C1496.61 199.769 1503.77 185.192 1509.05 171.117C1515.83 171.62 1521.87 172.751 1527.14 174.51C1532.42 176.269 1536.07 178.154 1538.08 180.165C1529.53 199.769 1522.62 216.231 1517.34 229.552C1512.32 242.873 1507.92 254.685 1504.15 264.99C1497.36 283.086 1490.95 299.548 1484.92 314.377C1479.14 329.457 1473.11 343.28 1466.82 355.847C1460.79 368.665 1454.13 380.478 1446.84 391.285C1439.81 402.344 1431.76 412.9 1422.72 422.953C1418.44 427.728 1413.54 431.875 1408.01 435.394C1402.73 439.164 1397.2 442.306 1391.42 444.819C1385.89 447.332 1380.37 449.217 1374.84 450.474C1369.56 451.731 1364.66 452.359 1360.13 452.359C1354.1 452.359 1347.94 451.605 1341.66 450.097C1335.38 448.84 1329.6 446.955 1324.32 444.442C1318.79 442.18 1314.01 439.415 1309.99 436.148C1305.97 433.132 1303.08 429.865 1301.32 426.346Z" fill="url(#paint0_linear_28_369)" shape-rendering="crispEdges"/>
</g>
<defs>
<filter id="filter0_d_28_369" x="0.802124" y="0.0899658" width="1540.28" height="457.269" filterUnits="userSpaceOnUse" color-interpolation-filters="sRGB">
<feFlood flood-opacity="0" result="BackgroundImageFix"/>
<feColorMatrix in="SourceAlpha" type="matrix" values="0 0 0 0 0 0 0 0 0 0 0 0 0 0 0 0 0 0 127 0" result="hardAlpha"/>
<feOffset dy="2"/>
<feGaussianBlur stdDeviation="1.5"/>
<feComposite in2="hardAlpha" operator="out"/>
<feColorMatrix type="matrix" values="0 0 0 0 0 0 0 0 0 0 0 0 0 0 0 0 0 0 0.4 0"/>
<feBlend mode="normal" in2="BackgroundImageFix" result="effect1_dropShadow_28_369"/>
<feBlend mode="normal" in="SourceGraphic" in2="effect1_dropShadow_28_369" result="shape"/>
</filter>
<linearGradient id="paint0_linear_28_369" x1="1511" y1="-95" x2="-61.1085" y2="496.867" gradientUnits="userSpaceOnUse">
<stop stop-color="#33B6FF" stop-opacity="0.91"/>
<stop offset="1" stop-color="#484DC1"/>
</linearGradient>
</defs>
</svg>
