<svg width="20" height="18" viewBox="0 0 20 18" fill="none" xmlns="http://www.w3.org/2000/svg">
<path fill-rule="evenodd" clip-rule="evenodd" d="M8.99986 0.75225C9.43486 -0.25075 10.8589 -0.25075 11.2939 0.75225L13.2739 5.31825L18.2279 5.79025C19.3159 5.89325 19.7559 7.24725 18.9359 7.97125L15.2059 11.2653L16.2879 16.1222C16.5259 17.1902 15.3739 18.0263 14.4319 17.4703L10.1469 14.9412L5.86186 17.4713C4.91986 18.0273 3.76786 17.1913 4.00586 16.1233L5.08786 11.2663L1.35786 7.97225C0.537859 7.24825 0.977859 5.89425 2.06686 5.79125L7.01986 5.31925L8.99986 0.75225ZM10.1469 3.13525L11.9079 7.19725L9.70085 8.80069L7.29686 10.5472L3.97786 7.61725L6.85386 10.1573L7.29686 10.5472L7.16886 11.1233L6.33386 14.8692L7.29686 10.5472L11.9079 7.19725L12.8701 10.1573L13.9599 14.8682L13.1173 11.2259L12.8701 10.1573L11.9079 7.19725L16.3159 7.61725L12.4959 7.25325L11.9079 7.19725L11.6739 6.65525L10.1469 3.13525Z" fill="#C18948"/>
</svg>
